<svg width="45" height="46" fill="none" xmlns="http://www.w3.org/2000/svg"><path d="M30.477 29.273c3.126 0 5.66-.968 5.66-2.16 0-1.194-2.534-2.162-5.66-2.162-3.125 0-5.659.968-5.659 2.161s2.534 2.16 5.66 2.16z" stroke="#000" stroke-miterlimit="10" stroke-linecap="round" stroke-linejoin="round"/><path d="M36.136 27.112v10.385c0 1.185-2.522 2.16-5.659 2.16-3.136 0-5.659-.975-5.659-2.16V27.112c0 1.185 2.523 2.16 5.66 2.16 3.136 0 5.658-.975 5.658-2.16zm7.5 3.485c0 1.185-2.522 2.16-5.659 2.16-.682 0-1.295-.07-1.84-.139v-4.042c.613-.07 1.227-.14 1.84-.14 3.137 0 5.66.976 5.66 2.161z" stroke="#000" stroke-miterlimit="10" stroke-linecap="round" stroke-linejoin="round"/><path d="M43.636 30.597v6.9c0 1.185-2.522 2.16-5.659 2.16-1.431 0-2.727-.208-3.75-.557 1.16-.418 1.91-.976 1.91-1.603v-4.879c.613.07 1.227.14 1.84.14 3.137 0 5.66-.976 5.66-2.161zm-7.5 0c0 1.185-2.522 2.16-5.659 2.16-3.136 0-5.659-.975-5.659-2.16" stroke="#000" stroke-miterlimit="10" stroke-linecap="round" stroke-linejoin="round"/><path d="M36.136 34.082c0 1.185-2.522 2.16-5.659 2.16-3.136 0-5.659-.975-5.659-2.16m18.818 0c0 1.185-2.522 2.16-5.659 2.16-.613 0-1.159-.07-1.772-.07" stroke="#000" stroke-miterlimit="10" stroke-linecap="round" stroke-linejoin="round"/><path d="M36.136 27.112c0-1.185-2.522-2.16-5.659-2.16-3.136 0-5.659.975-5.659 2.16v10.385c0 1.185 2.523 2.16 5.66 2.16 1.431 0 2.727-.208 3.75-.557 1.022.349 2.317.558 3.75.558 3.136 0 5.658-.976 5.658-2.161v-6.9c0-1.185-2.522-2.16-5.659-2.16-.613 0-1.227.07-1.84.139v-1.464zm0 0c0 .279-.136.488-.34.767.204-.21.34-.488.34-.767z" stroke="#000" stroke-miterlimit="10" stroke-linecap="round" stroke-linejoin="round"/><path d="M43.636 34.082c0 1.185-2.522 2.16-5.659 2.16-.613 0-1.159-.07-1.772-.07m-12-14.496L26.523 23l-10.91 6.482-.272.14-.341-.07-13.295-7.876-.341-.21 11.181-6.62 2.319 1.324 9.34 5.506zm16.635-7.109l-9.272 5.506-2.25-1.394-9.34-5.506-2.319-1.325 3.682-2.16 5.25-3.206.273-.14.272.21 13.296 7.875.409.14z" stroke="#000" stroke-miterlimit="10" stroke-linecap="round" stroke-linejoin="round"/><path d="M24.205 21.676l-8.319 4.948a1.416 1.416 0 00-1.295 0l-7.296-4.321c.614-.349.614-1.255 0-1.603l7.569-4.46 9.34 5.436zm10.568-6.273l-5.455 3.276-9.34-5.506 6.34-3.764c.41.21.887.21 1.296 0l7.159 4.252c-.614.418-.614 1.394 0 1.742z" stroke="#000" stroke-miterlimit="10" stroke-linecap="round" stroke-linejoin="round"/><path d="M31.568 20.073l-3.477 2.09-1.568.907-2.318-1.394-9.341-5.506-2.319-1.325 5.114-2.997 2.25 1.325 9.41 5.506 2.25 1.394zm-2.863-7.249c-.75-.418-1.978-.418-2.66 0-.75.418-.75 1.185 0 1.603.75.418 1.978.418 2.66 0 .75-.488.75-1.185 0-1.603zM16.023 20.63c-.75-.418-1.977-.418-2.66 0-.75.419-.75 1.185 0 1.603.75.418 1.978.418 2.66 0 .682-.418.75-1.184 0-1.603zm-14.659.837v3.415l13.909 8.224 7.363-4.39m9.954-5.856l8.25-4.878v-3.415" stroke="#000" stroke-miterlimit="10" stroke-linecap="round" stroke-linejoin="round"/><path d="M1.364 24.812v3.346l13.909 8.224 7.432-4.391m13.5-8.015l4.636-2.718v-3.416" stroke="#000" stroke-miterlimit="10" stroke-linecap="round" stroke-linejoin="round"/><path d="M1.364 28.088v3.345l13.909 8.225 7.5-4.391M40.84 21.118v3.415l-2.795 1.673m-11.522-2.788v-.348l5.045-2.997v2.857" stroke="#000" stroke-miterlimit="10" stroke-linecap="round" stroke-linejoin="round"/></svg>