<svg width="45" height="46" fill="none" xmlns="http://www.w3.org/2000/svg"><path d="M3.417 13.406h6.951c.364 0 .66-.302.66-.674a.667.667 0 00-.66-.674H3.416a.667.667 0 00-.659.674c0 .372.295.674.66.674zm6.713 3.244H7.384a.667.667 0 00-.66.673c0 .373.296.674.66.674h2.746c.364 0 .66-.301.66-.674a.667.667 0 00-.66-.673zM.66 21.322h6.724a.666.666 0 00.659-.674.667.667 0 00-.66-.673H.66a.667.667 0 00-.659.673c0 .373.295.674.66.674zm10.368 11.946a.667.667 0 00-.66-.674H3.416a.667.667 0 00-.659.674c0 .372.295.674.66.674h6.951c.364 0 .66-.302.66-.674zm-.898-5.265H7.384a.667.667 0 00-.66.674c0 .372.296.673.66.673h2.746c.364 0 .66-.301.66-.673a.667.667 0 00-.66-.674zm-2.087-2.651a.667.667 0 00-.66-.674H.66a.667.667 0 00-.659.674c0 .372.295.673.66.673h6.724a.666.666 0 00.659-.673zm20.041-10.453a.667.667 0 00.659-.674v-1.029a.667.667 0 00-.66-.673.667.667 0 00-.659.673v1.029c0 .372.296.674.66.674zm7.247.692a.65.65 0 00-.932 0l-.712.728a.685.685 0 000 .953.65.65 0 00.933 0l.711-.728a.685.685 0 000-.953zm1.337 6.735a.667.667 0 00-.66.674c0 .372.296.674.66.674h1.006c.364 0 .66-.302.66-.674a.667.667 0 00-.66-.674h-1.006zm-2.048 6.402a.65.65 0 00-.933 0 .685.685 0 000 .953l.712.728a.65.65 0 00.932 0 .684.684 0 000-.953l-.711-.728zm-7.196 3.047v1.029c0 .372.296.673.66.673a.666.666 0 00.659-.673v-1.029a.667.667 0 00-.66-.674.667.667 0 00-.659.674zm-5.877-3.047l-.711.728a.684.684 0 000 .953.649.649 0 00.932 0l.712-.728a.685.685 0 000-.953.65.65 0 00-.933 0zm-3.054-6.402a.667.667 0 00-.659.674c0 .372.295.674.66.674h1.005c.364 0 .66-.302.66-.674a.667.667 0 00-.66-.674h-1.006zm3.987-6.007l-.712-.728a.649.649 0 00-.932 0 .684.684 0 000 .953l.712.728a.65.65 0 00.932 0 .684.684 0 000-.953zM31.628 23a.666.666 0 00-.659-.674h-2.226v-5.003a.667.667 0 00-.66-.674.667.667 0 00-.659.674V23c0 .372.296.674.66.674h2.885c.364 0 .66-.302.66-.674z" fill="#000"/><path d="M40.583 22.889a.669.669 0 00.618-.714c-.42-7.07-6.181-12.61-13.117-12.61-7.247 0-13.143 6.027-13.143 13.435s5.896 13.435 13.143 13.435c6.492 0 12.032-4.863 12.996-11.425a.672.672 0 00-.555-.766.662.662 0 00-.75.566c-.865 5.895-5.845 10.277-11.691 10.277-6.52 0-11.825-5.422-11.825-12.087s5.305-12.087 11.825-12.087c6.24 0 11.424 4.983 11.8 11.344a.665.665 0 00.699.632z" fill="#000"/><path d="M28.084 5.708c-2.32 0-4.59.491-6.682 1.41H9.772a.667.667 0 00-.66.675c0 .372.296.674.66.674h9.15a16.998 16.998 0 00-3.38 2.929.684.684 0 00.046.952.65.65 0 00.931-.048c2.953-3.333 7.169-5.245 11.565-5.245 8.6 0 15.598 7.153 15.598 15.945 0 8.792-6.998 15.945-15.599 15.945-8.6 0-15.597-7.153-15.597-15.945 0-3.079.86-6.067 2.487-8.642a.683.683 0 00-.196-.931.65.65 0 00-.91.2 17.509 17.509 0 00-2.7 9.373c0 6.088 3.094 11.451 7.76 14.533H9.772a.667.667 0 00-.66.674c0 .372.296.674.66.674h11.621a16.507 16.507 0 006.69 1.411C37.412 40.292 45 32.535 45 23c0-9.535-7.589-17.292-16.916-17.292z" fill="#000"/></svg>