<svg width="46" height="46" fill="none" xmlns="http://www.w3.org/2000/svg"><path d="M45.46 25.145l-4.02-6.002a1.828 1.828 0 00-1.542-.823h-5.56c-.31 0-.604.074-.865.204v-6.482a.54.54 0 00-.518-.54l-2.033-.078a.541.541 0 00-.558.488l-.08.842-5.79-4.321a.536.536 0 00-.267-.104l-4.317-.452a.537.537 0 00-.125.002L3.645 9.977a2.886 2.886 0 00-2.506 2.57l-.674 6.446a2.887 2.887 0 001.921 3.034l1.967.69v4.578H3.19c-.95 0-1.724.774-1.724 1.724v3.53c0 .16.071.312.194.415l2.528 2.11c.097.08.219.124.345.124h4.425a3.715 3.715 0 003.626 2.929 3.715 3.715 0 003.626-2.929h.49a3.715 3.715 0 003.627 2.929 3.715 3.715 0 003.626-2.929h11.16a3.715 3.715 0 003.627 2.929 3.715 3.715 0 003.626-2.929h2.645a.54.54 0 00.539-.539v-9.214a.534.534 0 00-.092-.3zm-1.331-.05h-8.756v-3.797h6.213l2.543 3.796zM32.396 12.56v14.736h-2.409l1.404-14.775 1.005.04zm-22.25 14.736l-.393-2.68 7.633 2.68h-7.24zm12.632-10.289l-.383 3.664-3.055-2.146.383-3.664 3.055 2.146zm-2.927-3.373l.383-3.664 3.055 2.146-.382 3.664-3.056-2.146zm2.416 8.264l-.383 3.663-3.056-2.146.383-3.664 3.056 2.147zm-.541 4.87l-3.214-.336.187-1.79 3.027 2.126zm1.692-15.879l-2.613-1.835 2.774.29-.161 1.545zm.233 16.407l5.498-2.58-.245 2.58H23.65zm5.616-3.825l-6.395 2.999L24.61 9.863l5.557 4.147-.9 9.46zM2.743 21.01a1.79 1.79 0 01-1.206-1.905l.674-6.445a1.789 1.789 0 011.573-1.614l15.462-2.011-1.792 17.142-7.878-2.766-.822-5.627a.539.539 0 00-.533-.461H4.892a.54.54 0 00-.54.539v3.713l-1.61-.565zM5.43 18.4h2.325l1.3 8.896H5.431v-8.895zM2.546 32.298V29.02c0-.356.29-.646.646-.646h29.204v2.847h-3.933a.54.54 0 000 1.078h3.933v1.82h-6.402l-1.485-4.616a.54.54 0 00-.514-.374H8.956a.54.54 0 00-.511.37l-1.522 4.62H4.729l-2.183-1.822zm17.782-1.59a3.713 3.713 0 00-3.696 3.413h-.35a3.714 3.714 0 00-3.696-3.412A3.713 3.713 0 008.89 34.12h-.832l1.288-3.912h14.258l1.26 3.912h-.838a3.717 3.717 0 00-3.698-3.412zm-7.743 6.341a2.635 2.635 0 01-2.631-2.632c0-1.45 1.18-2.631 2.631-2.631a2.635 2.635 0 012.632 2.631 2.634 2.634 0 01-2.632 2.632zm7.743 0a2.635 2.635 0 01-2.631-2.632c0-1.45 1.18-2.631 2.631-2.631a2.635 2.635 0 012.632 2.631 2.634 2.634 0 01-2.632 2.632zm13.146-16.785c0-.477.388-.865.865-.865h5.56c.271 0 .495.12.646.345l.319.476h-6.03a.54.54 0 00-.539.54v4.874c0 .298.242.54.54.54h9.638v5.902h-1.217a.54.54 0 00-.539.54v1.505h-.28a3.714 3.714 0 00-3.696-3.412 3.713 3.713 0 00-3.697 3.412h-1.57V20.263zm5.267 16.785a2.635 2.635 0 01-2.632-2.632c0-1.45 1.18-2.631 2.632-2.631a2.635 2.635 0 012.631 2.631 2.635 2.635 0 01-2.631 2.632zm5.054-2.928v-.967h.678v.967h-.678zm-5.054-1.763c-1.136 0-2.06.925-2.06 2.06 0 1.136.924 2.06 2.06 2.06 1.135 0 2.06-.924 2.06-2.06 0-1.135-.925-2.06-2.06-2.06zm0 3.042a.983.983 0 11.001-1.965.983.983 0 01-.001 1.965zm-18.413-3.042c-1.136 0-2.06.925-2.06 2.06 0 1.136.924 2.06 2.06 2.06 1.136 0 2.06-.924 2.06-2.06 0-1.135-.924-2.06-2.06-2.06zm0 3.042a.983.983 0 11.002-1.965.983.983 0 01-.002 1.965zm-7.743-3.042c-1.135 0-2.06.925-2.06 2.06 0 1.136.925 2.06 2.06 2.06 1.136 0 2.06-.924 2.06-2.06 0-1.135-.923-2.06-2.06-2.06zm0 3.042a.983.983 0 11.002-1.965.983.983 0 01-.002 1.965zm22.509-7.566a.54.54 0 01.539-.54h1.5a.54.54 0 010 1.079h-1.5a.54.54 0 01-.54-.54z" fill="#000"/></svg>