<svg width="76" height="70" fill="none" xmlns="http://www.w3.org/2000/svg"><path d="M37.803 48.57c-2.114 0-3.886 1.771-3.886 3.885s1.772 3.885 3.886 3.885c2.036 0 3.885-1.771 3.792-3.792a3.794 3.794 0 00-3.792-3.979z" fill="#333"/><path d="M73.767 62.34c2.44-4.212 2.456-9.232.031-13.429L49.46 6.761C47.05 2.518 42.7 0 37.82 0c-4.881 0-9.233 2.533-11.642 6.745L1.807 48.942c-2.425 4.243-2.41 9.295.046 13.507 2.425 4.165 6.761 6.667 11.61 6.667H62.08c4.864 0 9.232-2.533 11.687-6.776zm-5.284-3.047c-1.352 2.332-3.746 3.715-6.419 3.715H13.448c-2.642 0-5.02-1.352-6.341-3.637-1.337-2.316-1.352-5.082-.016-7.413l24.37-42.182c1.322-2.316 3.684-3.683 6.357-3.683 2.658 0 5.036 1.383 6.357 3.699L68.53 51.973c1.305 2.27 1.29 5.005-.047 7.32z" fill="#333"/><path d="M36.839 21.293c-1.85.528-3 2.207-3 4.243.094 1.228.171 2.471.265 3.699.264 4.678.528 9.263.792 13.941.093 1.585 1.321 2.736 2.907 2.736 1.585 0 2.828-1.228 2.906-2.829 0-.964 0-1.85.093-2.829.171-3 .358-5.999.529-8.999.093-1.942.264-3.885.357-5.828 0-.7-.093-1.321-.357-1.943-.793-1.74-2.643-2.626-4.492-2.191z" fill="#333"/></svg>